<?xml version="1.0" standalone="no"?>
<!DOCTYPE svg PUBLIC "-//W3C//DTD SVG 20010904//EN"
 "http://www.w3.org/TR/2001/REC-SVG-20010904/DTD/svg10.dtd">
<svg version="1.0" xmlns="http://www.w3.org/2000/svg"
 width="1146.000000pt" height="305.000000pt" viewBox="0 0 1146.000000 305.000000"
 preserveAspectRatio="xMidYMid meet">

<g transform="translate(0.000000,305.000000) scale(0.100000,-0.100000)"
fill="#000000" stroke="none">
<path d="M0 1525 l0 -1525 5730 0 5730 0 0 1525 0 1525 -5730 0 -5730 0 0
-1525z m11200 -5 l0 -1260 -5465 0 -5465 0 0 1260 0 1260 5465 0 5465 0 0
-1260z"/>
<path d="M440 1520 l0 -1090 5290 0 5290 0 0 1090 0 1090 -5290 0 -5290 0 0
-1090z m9560 851 c0 -10 -4 -31 -9 -47 -5 -16 -26 -101 -46 -189 -21 -88 -51
-216 -69 -285 l-31 -125 -92 -3 -92 -3 5 33 c12 92 36 262 53 376 11 70 22
154 26 187 4 33 9 63 12 68 2 4 58 7 124 7 109 0 119 -2 119 -19z m-8721 -108
c7 -43 19 -111 27 -151 8 -41 11 -78 8 -83 -3 -5 -72 -9 -155 -9 l-149 0 2
-522 3 -523 150 -5 c90 -3 150 -9 150 -15 0 -12 -22 -142 -39 -235 l-12 -65
-209 0 c-229 0 -241 3 -297 62 -56 59 -58 85 -58 793 0 550 2 654 15 698 16
51 60 106 99 122 12 5 118 9 237 9 l216 1 12 -77z m441 -608 l0 -685 150 0
c83 0 150 -4 150 -8 0 -5 -4 -33 -9 -63 -5 -30 -14 -86 -21 -126 -6 -39 -13
-80 -15 -90 -2 -10 -4 -21 -4 -25 -1 -5 -125 -8 -276 -8 l-275 0 0 845 0 845
150 0 150 0 0 -685z m950 656 c0 -16 6 -64 14 -107 8 -44 19 -115 26 -159 6
-44 18 -114 25 -155 7 -41 18 -109 24 -150 16 -103 29 -189 41 -262 6 -35 12
-79 15 -98 3 -19 10 -60 15 -90 15 -86 57 -357 70 -445 6 -44 16 -102 21 -128
5 -26 9 -52 9 -57 0 -6 -62 -10 -149 -10 l-149 0 -6 37 c-3 21 -8 68 -12 106
l-6 67 -103 0 -102 0 -7 -63 c-4 -34 -9 -81 -12 -105 l-6 -42 -149 0 c-118 0
-149 3 -149 13 0 8 4 38 10 68 14 79 38 224 50 302 5 37 15 97 20 135 6 37 17
105 25 152 8 47 22 130 30 185 8 55 21 145 30 200 15 92 22 137 44 280 5 28
19 119 31 203 l24 152 163 0 163 0 0 -29z m909 -48 c7 -43 17 -100 21 -128 5
-27 10 -63 12 -80 l3 -30 -180 -5 -180 -5 0 -185 0 -185 140 -5 c114 -4 146
-9 169 -23 54 -36 56 -54 56 -439 0 -194 -5 -371 -10 -392 -12 -52 -37 -85
-86 -110 -35 -19 -60 -21 -266 -24 l-227 -4 -6 49 c-3 26 -12 77 -20 113 -7
36 -16 86 -20 112 l-6 48 173 2 173 3 3 179 c2 123 -1 183 -9 192 -9 11 -42
14 -136 14 -139 0 -166 9 -199 64 -17 28 -19 59 -22 376 -4 365 2 426 40 476
45 57 80 64 334 64 l231 0 12 -77z m771 5 c7 -40 18 -106 26 -147 8 -40 14
-79 14 -87 0 -11 -36 -14 -182 -16 l-183 -3 0 -185 0 -185 140 -5 c156 -6 180
-14 212 -73 16 -29 18 -66 18 -392 0 -324 -2 -365 -18 -407 -23 -60 -63 -93
-127 -107 -28 -6 -140 -11 -249 -11 l-198 0 -17 103 c-22 138 -26 158 -32 189
l-5 28 173 2 173 3 3 187 2 188 -22 5 c-13 2 -78 6 -145 7 -118 3 -123 4 -151
31 -50 48 -53 79 -50 462 l3 350 25 45 c18 32 38 52 70 68 42 21 56 22 276 22
l232 0 12 -72z m460 -773 l0 -846 -147 3 -148 3 -3 830 c-1 457 0 836 3 843 3
9 43 12 150 12 l145 0 0 -845z m695 803 c18 -124 36 -236 40 -255 l5 -23 -155
0 -155 0 0 -525 0 -525 155 0 155 0 -7 -32 c-4 -18 -16 -89 -27 -158 l-21
-125 -210 0 c-206 0 -211 1 -254 25 -32 18 -52 39 -70 75 l-26 50 0 700 0 700
25 45 c15 27 41 53 65 67 38 22 50 23 257 23 l216 0 7 -42z m1054 23 c45 -23
66 -46 86 -94 21 -51 23 -909 2 -960 -17 -39 -36 -55 -80 -71 l-34 -11 27 -95
c67 -230 120 -420 120 -430 0 -16 -299 -14 -304 3 -7 21 -125 471 -132 500 -4
18 -13 27 -25 27 -18 0 -19 -12 -19 -270 l0 -270 -150 0 -150 0 0 845 0 846
311 -1 c282 -1 315 -3 348 -19z m521 -826 l0 -845 -145 0 -145 0 0 845 0 845
145 0 145 0 0 -845z m778 831 c42 -22 79 -67 91 -111 15 -55 15 -1334 0 -1404
-14 -65 -44 -109 -94 -135 -38 -20 -59 -21 -342 -24 l-303 -3 0 845 0 846 310
0 c248 0 316 -3 338 -14z m807 -38 c3 -29 10 -75 15 -103 5 -27 12 -76 16
-107 l6 -58 -156 0 -156 0 0 -195 0 -195 120 0 120 0 0 -150 0 -150 -120 0
-120 0 0 -180 0 -180 150 0 c176 0 160 23 126 -180 l-22 -135 -282 -3 -282 -2
0 845 0 845 289 0 289 0 7 -52z m806 29 c32 -17 50 -37 69 -72 l25 -49 0 -457
c0 -448 0 -458 -21 -486 -11 -15 -38 -37 -60 -48 -21 -11 -41 -21 -43 -22 -2
-1 66 -243 145 -515 5 -17 -7 -18 -149 -18 l-154 0 -31 118 c-18 64 -45 169
-62 232 -50 193 -49 190 -70 190 -19 0 -20 -9 -20 -270 l0 -271 -147 3 -148 3
-2 834 c-1 459 0 839 3 843 3 4 144 8 313 8 303 0 309 0 352 -23z m1242 -29
c4 -29 11 -82 17 -118 5 -36 13 -84 16 -107 l7 -43 -181 0 c-155 0 -181 -2
-186 -16 -3 -9 -6 -89 -6 -179 0 -118 3 -165 13 -173 6 -5 71 -12 142 -14 233
-7 227 7 223 -483 -3 -350 -4 -361 -26 -406 -15 -31 -35 -53 -65 -70 -41 -24
-47 -24 -271 -24 l-229 0 -23 135 c-13 74 -25 144 -26 155 -3 19 4 20 172 25
l175 5 3 180 c2 160 1 181 -15 192 -11 9 -57 13 -138 13 -110 0 -125 2 -156
23 -62 42 -68 77 -69 439 0 354 5 401 53 455 52 59 67 62 328 63 l236 0 6 -52z"/>
<path d="M2496 1630 c-4 -41 -13 -124 -21 -185 -29 -232 -35 -281 -35 -297 0
-15 10 -18 66 -18 l67 0 -7 58 c-11 87 -25 216 -36 327 -6 55 -14 120 -18 145
l-9 45 -7 -75z"/>
<path d="M6200 1757 l0 -288 83 3 82 3 3 278 c2 238 0 278 -13 283 -8 3 -46 7
-85 7 l-70 2 0 -288z"/>
<path d="M7568 2042 l-68 -3 0 -544 0 -545 80 0 80 0 0 544 c0 427 -3 545 -12
547 -7 2 -43 3 -80 1z"/>
<path d="M9168 2043 l-68 -4 0 -284 0 -285 85 0 85 0 0 284 c0 250 -2 285 -16
290 -9 3 -16 5 -17 4 -1 -1 -32 -3 -69 -5z"/>
</g>
</svg>
